<svg xmlns="http://www.w3.org/2000/svg" height="896.74" viewBox="0 0 896.73999 896.73877" width="896.74"><defs><clipPath id="a"><path d="M0 960h960V0H0v960z"/></clipPath></defs><g clip-path="url(#a)" transform="matrix(1.25 0 0 -1.25 -164.28 1065.8)"><path d="M848.81 493.92c0 198.1-160.59 358.7-358.7 358.7-198.1 0-358.7-160.59-358.7-358.7 0-198.1 160.59-358.7 358.7-358.7s358.7 160.6 358.7 358.7" fill="#ffc107"/><path d="M490.12 282.7c2.955 0 5.705.183 8.447.822 13.733 2.743 25.14 12.29 30.424 24.957 2.114 5.074 3.384 10.52 3.384 16.52h-84.507c0-23 19.013-42.3 42.253-42.3M553 415h-26v93.967c0 10.71-1.096 18.717-3.145 24.026-2.042 5.305-5.71 9.54-10.918 12.706-5.208 3.162-11.336 4.746-18.347 4.746-11.197 0-21.064-3.555-29.193-10.662-8.13-7.1-12.397-20.59-12.397-40.453v-84.326h-26v155h24v-22.33c11 17.04 27.724 25.56 49.242 25.56 9.35 0 17.88-1.68 25.72-5.04 7.837-3.357 13.673-7.764 17.566-13.216 3.895-5.454 6.538-11.93 8.097-19.426.977-4.87 1.38-13.39 1.38-25.56V415zm74-5.585v116.2c0 64.86-45 119.16-105 133.52V673.5c0 17.537-14.463 31.69-32 31.69-17.536 0-32-14.153-32-31.69v-14.365c-60-14.365-105-68.662-105-133.52v-116.2l-42-42.254V346h359v21.16l-43 42.255z" fill="#fff"/></g></svg>